<svg width="552" height="557" viewBox="0 0 552 557" fill="none" xmlns="http://www.w3.org/2000/svg">
<path d="M92.399 481.083C109.797 481.262 127.194 481.442 146.146 481.61C148.6 481.424 149.499 481.249 150.398 481.075C154.502 481.253 158.606 481.432 164.459 481.616C184.39 481.655 202.572 481.774 220.754 481.69C231.97 481.638 243.184 481.276 254.399 481.052C255.299 481.221 256.198 481.391 258.594 481.57C264.193 481.411 268.296 481.241 272.398 481.072C274.549 481.248 276.7 481.424 280.501 481.608C288.233 481.444 294.315 481.272 300.398 481.1C302.549 481.276 304.701 481.453 308.353 481.634C311.368 481.461 312.883 481.284 314.397 481.106C316.549 481.279 318.702 481.453 322.493 481.626C330.101 481.646 336.071 481.666 342.496 482.109C344.895 482.241 346.839 481.95 349.691 481.668C360.532 481.494 370.465 481.311 380.398 481.128C390.367 481.37 400.366 482.218 410.296 481.716C426.467 480.898 439.39 465.285 430.892 447.847C420.546 426.614 409.748 405.602 399.265 384.434C365.881 317.029 332.589 249.577 299.13 182.209C296.645 177.204 293.742 172.127 289.948 168.11C281.667 159.342 270.147 159.256 261.793 168.07C257.541 172.556 254.315 178.24 251.503 183.823C241.624 203.434 232.15 223.248 222.478 242.963C209.871 268.658 197.059 294.254 184.724 320.078C182.208 325.346 180.211 331.413 180.092 337.155C179.87 347.897 186.185 355.127 195.877 359.288C204.69 363.072 212.395 360.417 218.542 353.875C222.342 349.83 225.566 345.002 228.084 340.037C237.116 322.234 245.696 304.202 254.533 286.299C257.867 279.547 262.224 273.785 270.149 271.943C281.06 269.407 289.892 273.65 295.542 284.625C306.359 305.632 316.997 326.731 327.718 347.788C335.422 362.919 343.149 378.039 350.846 393.174C352.353 396.136 354.058 399.041 355.177 402.15C361.013 418.352 352.257 432.035 335.2 433.493C332.551 433.719 329.873 433.654 327.209 433.655C247.907 433.688 168.605 433.713 89.3026 433.734C87.3044 433.734 85.2977 433.774 83.3093 433.615C65.2163 432.172 56.1146 417.444 63.6763 400.939C71.2994 384.299 79.5892 367.963 87.7115 351.556C122.116 282.057 156.614 212.603 190.984 143.087C211.346 101.902 231.516 60.6218 251.829 19.4124C253.589 15.8417 255.437 12.2272 257.818 9.06507C267.326 -3.56258 285.685 -2.90267 294.026 10.4515C297.719 16.3639 300.805 22.6747 303.909 28.9325C334.225 90.0516 364.364 151.258 394.792 212.321C436.342 295.706 478.1 378.987 519.768 462.313C528.994 480.764 538.272 499.189 547.407 517.685C550.537 524.023 552.611 530.552 550.692 537.877C548.251 547.199 542.711 553.117 533.152 554.742C529.241 555.406 525.202 555.501 521.219 555.519C497.564 555.622 473.909 555.626 448.826 555.738C447.04 555.964 446.681 556.115 446.323 556.266C444.369 556.029 442.414 555.585 440.459 555.585C391.736 555.576 343.012 555.614 292.576 555.673C288.003 555.878 285.141 556.056 282.279 556.234C278.986 555.999 275.694 555.559 272.402 555.558C192.24 555.534 112.078 555.559 31.9166 555.562C28.2589 555.562 24.5786 555.68 20.9475 555.335C5.30769 553.852 -4.1394 539.763 1.78425 525.215C7.76078 510.538 13.518 495.516 25.0949 483.537C27.7258 483.242 30.6745 482.911 35.0977 482.081C55.1812 481.416 73.7901 481.249 92.399 481.083Z" fill="#58CC05"/>
</svg>