<svg width="2702" height="557" viewBox="0 0 2702 557" fill="none" xmlns="http://www.w3.org/2000/svg">
<path d="M92.399 481.083C109.797 481.262 127.194 481.442 146.146 481.61C148.6 481.424 149.499 481.249 150.398 481.075C154.502 481.253 158.606 481.432 164.459 481.616C184.39 481.655 202.572 481.774 220.754 481.69C231.97 481.638 243.184 481.276 254.399 481.052C255.299 481.221 256.198 481.391 258.594 481.57C264.193 481.411 268.296 481.241 272.398 481.072C274.549 481.248 276.7 481.424 280.501 481.608C288.233 481.444 294.315 481.272 300.398 481.1C302.549 481.276 304.701 481.453 308.353 481.634C311.368 481.461 312.883 481.284 314.397 481.106C316.549 481.279 318.702 481.453 322.493 481.626C330.101 481.646 336.071 481.666 342.496 482.109C344.895 482.241 346.839 481.95 349.691 481.668C360.532 481.494 370.465 481.311 380.398 481.128C390.367 481.37 400.366 482.218 410.296 481.716C426.467 480.898 439.39 465.285 430.892 447.847C420.546 426.614 409.748 405.602 399.265 384.434C365.881 317.029 332.589 249.577 299.13 182.209C296.645 177.204 293.742 172.127 289.948 168.11C281.667 159.342 270.147 159.256 261.793 168.07C257.541 172.556 254.315 178.24 251.503 183.823C241.624 203.434 232.15 223.248 222.478 242.963C209.871 268.658 197.059 294.254 184.724 320.078C182.208 325.346 180.211 331.413 180.092 337.155C179.87 347.897 186.185 355.127 195.877 359.288C204.69 363.072 212.395 360.417 218.542 353.875C222.342 349.83 225.566 345.002 228.084 340.037C237.116 322.234 245.696 304.202 254.533 286.299C257.867 279.547 262.224 273.785 270.149 271.943C281.06 269.407 289.892 273.65 295.542 284.625C306.359 305.632 316.997 326.731 327.718 347.788C335.422 362.919 343.149 378.039 350.846 393.174C352.353 396.136 354.058 399.041 355.177 402.15C361.013 418.352 352.257 432.035 335.2 433.493C332.551 433.719 329.873 433.654 327.209 433.655C247.907 433.688 168.605 433.713 89.3026 433.734C87.3044 433.734 85.2977 433.774 83.3093 433.615C65.2163 432.172 56.1146 417.444 63.6763 400.939C71.2994 384.299 79.5892 367.963 87.7115 351.556C122.116 282.057 156.614 212.603 190.984 143.087C211.346 101.902 231.516 60.6218 251.829 19.4124C253.589 15.8417 255.437 12.2272 257.818 9.06507C267.326 -3.56258 285.685 -2.90267 294.026 10.4515C297.719 16.3639 300.805 22.6747 303.909 28.9325C334.225 90.0516 364.364 151.258 394.792 212.321C436.342 295.706 478.1 378.987 519.768 462.313C528.994 480.764 538.272 499.189 547.407 517.685C550.537 524.023 552.611 530.552 550.692 537.877C548.251 547.199 542.711 553.117 533.152 554.742C529.241 555.406 525.202 555.501 521.219 555.519C497.564 555.622 473.909 555.626 448.826 555.738C447.04 555.964 446.681 556.115 446.323 556.266C444.369 556.029 442.414 555.585 440.459 555.585C391.736 555.576 343.012 555.614 292.576 555.673C288.003 555.878 285.141 556.056 282.279 556.234C278.986 555.999 275.694 555.559 272.402 555.558C192.24 555.534 112.078 555.559 31.9166 555.562C28.2589 555.562 24.5786 555.68 20.9475 555.335C5.30769 553.852 -4.1394 539.763 1.78425 525.215C7.76078 510.538 13.518 495.516 25.0949 483.537C27.7258 483.242 30.6745 482.911 35.0977 482.081C55.1812 481.416 73.7901 481.249 92.399 481.083Z" fill="#58CC05"/>
<path d="M2204.19 195.3C2215.79 203.031 2227.25 210.777 2235.92 222.147C2250.85 241.722 2257.42 264.283 2258.38 288.164C2259.67 320.069 2259.21 352.047 2259.39 383.994C2259.5 404.263 2259.41 424.534 2259.41 445.637C2232.03 445.637 2204.99 445.637 2177.25 445.637C2177.1 443.755 2176.82 441.879 2176.82 440.003C2176.8 399.397 2176.9 358.791 2176.72 318.186C2176.69 311.244 2175.89 304.236 2174.73 297.378C2168.42 259.825 2138.09 244.791 2104.47 254.046C2084.18 259.634 2071.82 273.765 2065.65 293.47C2063.87 299.146 2063.08 305.129 2061.61 312.534C2061.23 350.338 2061.03 386.58 2060.93 422.822C2060.91 429.449 2061.25 436.078 2061.22 443.245C2061.11 444.157 2061.21 444.528 2060.9 445.265C2060.34 445.959 2060.18 446.288 2059.12 446.509C2031.73 446.402 2005.26 446.402 1978.17 446.402C1978.17 442.248 1978.17 439.308 1978.17 436.368C1978.13 401.146 1978.11 365.923 1978.06 330.7C1978.05 323.723 1978.59 316.673 1977.78 309.785C1976.39 297.874 1976.43 285.295 1966.62 276.1C1963.22 262.305 1952.33 256.182 1940.27 253.485C1907 246.048 1878.16 261.527 1867.41 292.314C1862.42 306.294 1861.85 319.496 1861.87 332.789C1861.92 367.248 1861.97 401.707 1861.88 436.166C1861.87 439.688 1860.92 443.207 1859.51 446.59C1853.21 446.586 1847.81 446.72 1841.51 446.616C1833.88 446.545 1827.14 446.713 1819.49 446.655C1809.19 446.631 1799.8 446.832 1789.54 446.797C1785.81 446.324 1782.95 446.085 1779.57 445.804C1779.57 432.359 1779.58 419.757 1779.57 407.154C1779.51 367.229 1779.51 327.303 1779.28 287.379C1779.26 283.742 1777.75 280.115 1776.93 276.483C1776.8 275.04 1776.66 273.597 1776.74 270.697C1776.25 265.671 1775.54 262.103 1774.84 258.534C1772.8 246.419 1770.77 234.304 1768.42 220.665C1766.25 210.075 1764.4 201.009 1762.45 191.42C1768.03 190.988 1772.19 190.666 1777.28 190.58C1792.94 190.677 1807.68 190.537 1823.32 190.585C1831.61 191.423 1839.01 192.072 1846.3 193.535C1847.26 199.934 1848.33 205.521 1849.3 211.744C1849.52 213.16 1849.85 213.94 1850.04 215.589C1851.38 225.312 1852.85 234.166 1854.32 243.021C1878.09 205.06 1909.76 183.21 1954.92 183.994C2000.2 184.781 2032.5 205.484 2051.85 247.899C2054.59 243.376 2056.94 239.824 2058.97 236.098C2065.96 223.284 2075.81 213.125 2087.5 204.568C2091.42 201.698 2095.11 198.516 2098.87 195.392C2098.83 195.307 2099 195.407 2099.75 195.494C2114.51 188.201 2129.47 184.57 2145.26 183.911C2165.83 183.053 2185.4 187.096 2204.19 195.3Z" fill="#0B0B0B"/>
<path d="M1484.4 190.416C1492.37 190.571 1500.36 190.592 1508.32 191.002C1509.8 191.079 1511.2 192.719 1512.52 195.006C1512.4 197.655 1512.41 198.936 1512.1 200.791C1511.79 202.225 1511.8 203.085 1511.41 204.44C1510.89 207.534 1510.77 210.132 1510.35 213.506C1507.56 234.868 1505.06 255.454 1502.25 276.734C1500.83 287.207 1499.73 296.987 1498.33 307.093C1498.1 308.53 1498.18 309.643 1498.08 311.595C1498 315.853 1498.11 319.27 1498 323.059C1498.02 324.52 1498.26 325.608 1498.44 327.571C1498.96 332.46 1499.56 336.475 1499.95 341.008C1500 342.58 1500.27 343.635 1500.5 345.447C1501.02 349.693 1501.59 353.182 1501.9 357.037C1501.95 358.498 1502.25 359.592 1502.51 361.479C1503.16 366.425 1503.86 370.578 1504.41 375.507C1504.88 380.411 1505.49 384.538 1505.86 389.038C1505.94 390.503 1506.25 391.595 1506.53 393.497C1507.2 399.109 1507.89 403.91 1508.42 409.399C1508.53 410.976 1508.79 411.865 1508.93 413.576C1510.04 424.761 1511.29 435.124 1512.59 445.902C1483.09 445.902 1455 445.902 1427.03 445.902C1426.04 440.448 1425.16 435.588 1424.28 430.727C1424.17 428.546 1424.06 426.365 1423.74 422.796C1423.19 419.186 1422.84 416.965 1422.78 414.397C1422.79 412.952 1422.53 411.852 1422.31 409.922C1421.78 406.422 1421.21 403.751 1420.82 400.491C1420.66 398.014 1420.33 396.126 1419.8 393.112C1418.21 395.527 1417.21 397.051 1415.56 398.762C1412.79 402.221 1410.65 405.493 1408.52 408.764C1397.28 419.107 1386.09 429.43 1372.74 437.179C1347.41 451.881 1319.93 454.946 1291.65 451.551C1235.82 444.846 1197.52 407.732 1186.4 351.043C1180.9 322.968 1183.4 295.449 1191.06 268.161C1191.77 265.612 1192.26 263 1193.18 259.05C1197.21 244.704 1204.46 233.648 1213.12 223.014C1219.35 218.296 1224.89 213.538 1231.1 208.628C1237.99 204.594 1244.21 200.712 1250.44 196.831C1252.81 195.826 1255.17 194.821 1258.76 193.289C1267.26 190.7 1274.43 188.031 1281.85 186.684C1310.08 181.554 1337.71 183.581 1364.8 195.325C1372.61 200.275 1380.02 204.67 1387.75 209.615C1389.51 211.055 1390.93 211.947 1392.62 213.41C1395.75 216.327 1398.62 218.673 1401.8 221.633C1407.93 229.083 1413.74 235.92 1420.76 244.187C1422.89 225.217 1424.79 208.262 1426.79 190.416C1446.68 190.416 1465.54 190.416 1484.4 190.416ZM1357.92 251.749C1347.93 248.631 1337.7 247.643 1327.32 248.677C1301.94 251.205 1283.99 263.758 1273.89 287.596C1268.25 300.891 1266.48 314.54 1268.1 328.625C1273.52 375.988 1312.74 396.249 1352.83 386.592C1387.24 378.3 1407.7 354.483 1420.86 323.206C1421.85 320.841 1421.67 317.398 1420.78 314.909C1409.92 284.707 1389.87 263.4 1357.92 251.749Z" fill="#0B0B0B"/>
<path d="M2389.47 196.344C2389.07 195.428 2388.57 194.538 2388.32 193.584C2388.17 193.012 2388.4 192.338 2388.55 190.834C2391.35 190.834 2394.24 190.832 2397.13 190.835C2421.42 190.859 2445.71 191.121 2470 190.749C2476.41 190.65 2480.49 192.903 2484.34 197.672C2502.1 219.664 2520.11 241.462 2538.04 263.317C2539.07 264.573 2540.24 265.713 2541.82 267.421C2547.92 259.966 2553.79 252.827 2559.62 245.657C2572.42 229.917 2585.41 214.325 2597.86 198.32C2602.14 192.825 2606.65 189.681 2613.72 190.915C2615.33 191.196 2617.04 190.931 2620.47 190.905C2645.62 190.741 2669.01 190.59 2692.39 190.439C2692.46 191.859 2693.18 193.829 2692.52 194.617C2680.9 208.282 2669.07 221.757 2657.41 235.385C2654.64 238.625 2652.51 242.406 2649.8 245.709C2632.91 266.316 2615.93 286.852 2599.01 307.432C2596.9 309.995 2594.94 312.673 2592.59 315.698C2628.36 358.677 2664.04 401.551 2701.21 446.213C2696.58 446.213 2694.09 446.207 2691.6 446.214C2666.61 446.286 2641.61 446.169 2616.62 446.569C2610.39 446.669 2606.3 444.983 2602.24 439.974C2583.16 416.429 2563.58 393.287 2544.16 370.017C2542.69 368.248 2541.06 366.609 2538.96 364.329C2533.06 371.474 2527.32 378.315 2521.7 385.251C2506.6 403.879 2491.57 422.56 2476.47 441.188C2474.21 443.984 2472.17 447.328 2466.19 446.572C2439.53 446.476 2414.36 446.427 2389.2 446.226C2386.38 446.204 2383.56 445.323 2381.25 444.433C2385.41 439.212 2389.07 434.399 2393.35 429.269C2398.77 422.871 2403.57 416.791 2408.96 410.454C2410.76 408.456 2411.98 406.715 2413.74 404.676C2415.44 402.663 2416.58 400.947 2418.26 398.941C2420.68 396.08 2422.58 393.508 2425.07 390.6C2446.03 365.523 2466.41 340.783 2486.97 315.823C2468.48 292.895 2450.83 270.893 2433.04 249.008C2423.63 237.443 2413.98 226.081 2404.28 213.976C2399.24 207.664 2394.35 202.004 2389.47 196.344Z" fill="#0B0B0B"/>
<path d="M722.79 251.503C722.973 247.12 723.155 242.736 723.377 236.678C723.372 228.906 723.327 222.81 723.283 216.713C738.547 211.029 753.704 205.024 769.135 199.836C774.501 198.032 777.214 194.929 779.415 190.128C788.428 170.467 797.64 150.896 806.986 131.391C808.478 128.277 811.028 125.67 814.464 122.769C830.02 122.71 844.2 122.71 859.105 122.71C859.105 146.015 859.105 167.876 859.105 189.335C860.435 190.007 861.003 190.546 861.571 190.546C888.51 190.519 915.448 190.446 942.386 190.379C950.427 190.528 958.468 190.677 967.621 191.702C968.701 212.647 968.669 232.717 968.562 252.779C968.487 252.771 968.481 252.922 967.79 252.927C966.197 253.045 965.295 253.159 963.485 253.026C928.191 252.779 893.804 252.779 859.244 252.779C859.244 267.65 859.244 281.181 859.002 295.367C858.921 296.926 859.08 297.829 859.003 299.64C858.892 312.603 859.019 324.658 858.907 337.388C858.865 340.411 859.061 342.759 859.12 345.945C860.098 355.71 861.283 364.611 868.365 371.974C870.344 374.292 872.152 376.005 874.319 378.28C880.982 381.629 887.038 385.662 893.636 386.977C916.689 391.572 939.212 388.366 961.107 380.154C964.736 378.793 968.382 377.475 973.039 375.763C973.039 397.864 973.039 418.613 973.039 439.442C952.145 446.932 930.987 450.854 909.354 452.16C884.008 453.69 858.897 452.435 834.53 444.343C830.475 442.134 826.405 439.954 822.369 437.712C804.203 427.625 791.058 413.17 783.154 392.242C780.422 379.038 777.156 367.107 776.807 355.092C775.918 324.506 776.331 293.883 776.226 263.274C776.215 260.046 776.225 256.818 776.225 252.665C762.976 252.665 750.76 252.779 738.547 252.612C733.291 252.541 728.042 251.891 722.79 251.503Z" fill="#0B0B0B"/>
<path d="M1658.47 446.499C1658.21 443.533 1657.72 440.567 1657.72 437.601C1657.65 349.301 1657.64 261.002 1657.61 171.063C1657.39 160.505 1657.18 151.587 1657.26 141.777C1657.31 131.508 1657.08 122.132 1657.16 111.979C1657.72 108.022 1657.98 104.843 1658.29 101.103C1669.87 101.103 1680.74 101.047 1691.61 101.116C1707.79 101.219 1723.96 101.41 1740.14 101.564C1740.14 101.564 1739.94 102.277 1740.11 103.433C1740.32 124.435 1740.31 144.281 1740.41 164.127C1740.49 180.32 1740.7 196.512 1740.85 212.705C1740.7 215.505 1740.55 218.305 1740.41 222.837C1740.4 289.177 1740.4 353.786 1740.33 418.395C1740.32 427.704 1739.99 437.013 1739.81 446.321C1739.81 446.321 1740.04 446.431 1739.13 446.357C1711.64 446.356 1685.06 446.427 1658.47 446.499Z" fill="#0B0B0B"/>
<path d="M1185.28 256.418C1164.19 251.962 1143.26 251.301 1123.07 260.243C1107.02 267.349 1094.92 278.66 1087.6 296.376C1084.79 307.191 1080.89 316.742 1080.56 326.414C1079.52 356.554 1079.79 386.741 1079.66 416.909C1079.63 423.517 1080 430.127 1080.19 436.735C1080.02 437.631 1079.84 438.526 1079.68 440.824C1079.5 447.524 1075.52 446.377 1072.41 446.383C1049.83 446.427 1027.25 446.413 1004.67 446.37C1002.43 446.366 1000.19 446.049 996.807 445.79C996.807 440.102 996.806 434.874 996.807 429.647C996.812 382.827 996.898 336.007 996.728 289.187C996.706 282.991 995.385 276.799 994.779 269.825C993.982 264.933 993.071 260.823 992.25 255.902C989.769 241.469 987.319 227.823 984.54 214.243C983.855 210.894 982.102 207.764 980.841 204.533C980.841 200.323 980.841 196.113 980.841 190.784C996.327 190.784 1011.45 190.784 1028.41 190.774C1041.41 190.764 1052.58 190.764 1063.63 190.764C1064.72 193.184 1065.52 194.966 1066.19 197.423C1066.28 198.976 1066.51 199.854 1066.63 201.556C1069.41 219.841 1072.3 237.301 1075.18 254.761C1075.89 254.867 1076.59 254.974 1077.3 255.08C1083.75 239.072 1091.71 223.979 1103.54 210.772C1104.91 209.482 1105.76 208.35 1107.25 206.965C1115.42 201.434 1122.94 196.156 1130.47 190.877C1132.11 190.383 1133.76 189.888 1136.68 188.965C1153.66 183.379 1169.56 182.892 1185.56 185.555C1185.99 187.315 1186.41 188.249 1186.42 189.184C1186.5 209.684 1186.57 230.185 1186.53 250.684C1186.52 252.597 1185.72 254.507 1185.28 256.418Z" fill="#0B0B0B"/>
<path d="M2292.91 320.776C2293.13 310.264 2293.43 299.753 2293.55 289.239C2293.66 279.68 2293.56 270.12 2293.54 259.138C2293.34 256.067 2293.17 254.418 2293 252.769C2293.2 236.673 2293.4 220.577 2293.57 202.69C2293.54 196.769 2293.54 192.638 2293.54 188.102C2302.65 189.464 2310.55 190.646 2318.46 191.828C2327.4 195.104 2336.37 195.781 2345.74 193.355C2355.34 190.872 2365.13 189.143 2376.04 186.828C2376.3 192.669 2376.53 197.835 2376.75 204.775C2376.92 215.261 2377.1 223.972 2377.05 233.592C2376.99 243.255 2377.16 252.01 2377.12 261.677C2377.05 291.953 2377.2 321.318 2377.11 351.5C2377.02 355.133 2377.17 357.949 2377.11 361.675C2377.04 374.618 2377.18 386.65 2377.11 399.588C2377.01 408.583 2377.13 416.672 2377.03 425.643C2376.81 432.594 2376.82 438.663 2376.16 445.292C2349.55 446.039 2323.6 446.25 2297.65 446.361C2296.06 446.368 2294.46 445.593 2292.87 445.181C2293.33 444.684 2293.42 444.126 2293.18 442.368C2293.04 439.064 2292.86 436.9 2292.97 433.84C2293.34 419.37 2293.53 405.795 2293.46 392.221C2293.39 377.677 2293.07 363.135 2292.85 348.592C2293.06 340.464 2293.27 332.337 2293.42 322.972C2293.21 321.414 2293.06 321.095 2292.91 320.776Z" fill="#0B0B0B"/>
<path d="M1539.9 188.745C1540.98 188.341 1542.06 187.936 1544.28 187.769C1550.42 188.874 1555.41 189.741 1561.05 191.003C1565.23 191.929 1568.75 192.46 1572.94 193.452C1578.5 193.969 1583.48 194.64 1588.26 193.948C1596.72 192.722 1605.05 190.537 1613.48 189.029C1616.55 188.48 1619.77 188.717 1622.79 189.516C1622.86 197.85 1623.07 205.263 1623.27 212.676C1623.1 214.85 1622.94 217.024 1622.81 220.892C1623.01 241.283 1623.17 259.982 1623.32 278.681C1623.15 279.598 1622.98 280.516 1622.85 282.979C1622.84 333.288 1622.78 382.051 1622.77 430.813C1622.77 432.781 1623.12 434.749 1623.07 437.583C1622.62 440.963 1622.39 443.477 1622.18 445.838C1594.68 445.838 1567.89 445.838 1540.38 445.838C1540.38 442.539 1540.38 439.938 1540.38 437.337C1540.31 381.091 1540.26 324.845 1540.17 268.599C1540.13 241.981 1540 215.363 1539.9 188.745Z" fill="#0B0B0B"/>
<path d="M2384.31 120.995C2383.59 141.257 2372.97 155.38 2354.62 160.919C2340.87 165.071 2326.92 164.98 2313.37 160.475C2297.54 155.208 2287.62 143.837 2285.27 127.332C2282.89 110.561 2289.98 97.1271 2304.27 88.5013C2323.44 76.9371 2343.66 77.3659 2363.34 87.1508C2376.54 93.7163 2382.95 105.552 2384.31 120.995Z" fill="#0B0B0B"/>
<path d="M1631.21 124.704C1628.73 144.983 1616.6 156.608 1596.1 162.419C1585.83 162.796 1577.12 162.899 1568.41 163.003C1561.27 159.657 1553.27 157.434 1547.14 152.763C1526.16 136.792 1527.71 105.098 1548.96 89.4159C1566.93 76.1561 1607.46 77.4397 1622.23 97.0643C1628.05 106.241 1631.2 114.986 1631.21 124.704Z" fill="#0B0B0B"/>
</svg>